<svg width="22" height="22" viewBox="0 0 22 22" fill="none" xmlns="http://www.w3.org/2000/svg">
<g style="mix-blend-mode:darken">
<rect x="0.958984" y="0.220703" width="20.9781" height="20.9781"/>
</g>
<path d="M4.25565 9.71079V17.7025H7.8519V9.71079H4.25565ZM9.65003 3.71704V17.7025H13.2463V3.71704H9.65003ZM15.0444 11.7087V17.7025H18.6407V11.7087H15.0444ZM18.6407 19.7004H4.25565C3.76116 19.7004 3.338 19.5049 2.98617 19.114C2.63374 18.7224 2.45752 18.2519 2.45752 17.7025V9.71079C2.45752 9.16136 2.63374 8.69085 2.98617 8.29926C3.338 7.90834 3.76116 7.71287 4.25565 7.71287H7.8519V3.71704C7.8519 3.16761 8.02812 2.6971 8.38055 2.30551C8.73238 1.91458 9.15554 1.71912 9.65003 1.71912H13.2463C13.7408 1.71912 14.1642 1.91458 14.5167 2.30551C14.8685 2.6971 15.0444 3.16761 15.0444 3.71704V9.71079H18.6407C19.1351 9.71079 19.5586 9.90625 19.911 10.2972C20.2629 10.6888 20.4388 11.1593 20.4388 11.7087V17.7025C20.4388 18.2519 20.2629 18.7224 19.911 19.114C19.5586 19.5049 19.1351 19.7004 18.6407 19.7004Z" fill="#87888C"/>
</svg>
