<svg width="22" height="22" viewBox="0 0 22 22" fill="none" xmlns="http://www.w3.org/2000/svg">
<path d="M19.9307 18.0835V11.1339C19.9308 10.6504 19.8309 10.1719 19.6372 9.72789C19.4435 9.28385 19.16 8.88355 18.8042 8.5515L12.1754 2.36376C11.8416 2.052 11.3995 1.8783 10.9401 1.8783C10.4807 1.8783 10.0386 2.052 9.70478 2.36376L3.07599 8.5515C2.72016 8.88355 2.43671 9.28385 2.24301 9.72789C2.0493 10.1719 1.94941 10.6504 1.94946 11.1339V18.0835C1.94946 18.5546 2.13891 19.0063 2.47612 19.3394C2.81334 19.6724 3.2707 19.8596 3.74759 19.8596H18.1326C18.6095 19.8596 19.0669 19.6724 19.4041 19.3394C19.7413 19.0063 19.9307 18.5546 19.9307 18.0835Z" fill="black" stroke="#171821" stroke-width="1.79813" stroke-linecap="round" stroke-linejoin="round"/>
</svg>
