<svg width="22" height="22" viewBox="0 0 22 22" fill="none" xmlns="http://www.w3.org/2000/svg">
<g style="mix-blend-mode:darken">
<rect x="0.958984" y="0.0615234" width="20.9781" height="20.9781" />
</g>
<path d="M3.28143 8.60874C3.32237 8.15814 3.55398 7.73769 3.93012 7.43112C4.30626 7.12456 4.79934 6.95438 5.31115 6.95447H17.5852C18.097 6.95438 18.59 7.12456 18.9662 7.43112C19.3423 7.73769 19.5739 8.15814 19.6149 8.60874L20.4323 17.5994C20.4547 17.8468 20.419 18.0956 20.3272 18.3303C20.2355 18.5649 20.0898 18.7802 19.8992 18.9626C19.7086 19.145 19.4774 19.2906 19.22 19.3902C18.9625 19.4898 18.6846 19.5413 18.4036 19.5414H4.49275C4.21172 19.5413 3.93376 19.4898 3.67636 19.3902C3.41896 19.2906 3.18769 19.145 2.99712 18.9626C2.80655 18.7802 2.66081 18.5649 2.56906 18.3303C2.47732 18.0956 2.44156 17.8468 2.46404 17.5994L3.28143 8.60874V8.60874Z" stroke="#87888C" stroke-width="1.49844" stroke-linecap="round" stroke-linejoin="round"/>
<path d="M15.5187 9.65151V5.15619C15.5187 4.2024 15.0897 3.28768 14.3261 2.61326C13.5625 1.93883 12.5269 1.55994 11.447 1.55994C10.3672 1.55994 9.33151 1.93883 8.56793 2.61326C7.80434 3.28768 7.37537 4.2024 7.37537 5.15619V9.65151" stroke="#87888C" stroke-width="1.49844" stroke-linecap="round" stroke-linejoin="round"/>
</svg>
