<svg width="22" height="22" viewBox="0 0 22 22" fill="none" xmlns="http://www.w3.org/2000/svg">
<g style="mix-blend-mode:darken">
<rect x="0.958984" y="0.641113" width="20.9781" height="20.9781" />
</g>
<path d="M19.7292 14.8871H7.79317L8.39248 13.5297L18.3502 13.5096C18.687 13.5096 18.9756 13.2421 19.0357 12.8721L20.4147 4.28827C20.4508 4.06315 20.3967 3.83133 20.2644 3.65524C20.199 3.56858 20.1175 3.49877 20.0254 3.45066C19.9333 3.40254 19.833 3.37728 19.7312 3.37662L7.06358 3.32981L6.95534 2.76364C6.88719 2.40255 6.59455 2.13953 6.26183 2.13953H3.16506C2.97741 2.13953 2.79745 2.22242 2.66475 2.36998C2.53206 2.51754 2.45752 2.71768 2.45752 2.92636C2.45752 3.13504 2.53206 3.33518 2.66475 3.48274C2.79745 3.6303 2.97741 3.71319 3.16506 3.71319H5.68858L6.16161 6.21412L7.32615 12.4843L5.82688 15.2059C5.74902 15.3227 5.70212 15.4615 5.6915 15.6065C5.68087 15.7514 5.70694 15.8968 5.76675 16.0261C5.88701 16.2914 6.12954 16.4586 6.39813 16.4586H7.65688C7.38853 16.8549 7.24358 17.3377 7.24397 17.8339C7.24397 19.0955 8.16599 20.1208 9.30046 20.1208C10.4349 20.1208 11.357 19.0955 11.357 17.8339C11.357 17.3368 11.2086 16.8531 10.9441 16.4586H14.1731C13.9048 16.8549 13.7598 17.3377 13.7602 17.8339C13.7602 19.0955 14.6822 20.1208 15.8167 20.1208C16.9512 20.1208 17.8732 19.0955 17.8732 17.8339C17.8732 17.3368 17.7249 16.8531 17.4603 16.4586H19.7312C20.1201 16.4586 20.4388 16.1064 20.4388 15.6717C20.4376 15.4633 20.3624 15.2638 20.2294 15.1168C20.0965 14.9698 19.9167 14.8872 19.7292 14.8871ZM7.35822 4.88119L18.8994 4.92354L17.769 11.9627L8.70316 11.9805L7.35822 4.88119ZM9.30046 18.5382C8.9517 18.5382 8.66708 18.2217 8.66708 17.8339C8.66708 17.446 8.9517 17.1295 9.30046 17.1295C9.64923 17.1295 9.93385 17.446 9.93385 17.8339C9.93385 18.0207 9.86712 18.1998 9.74833 18.3319C9.62955 18.464 9.46845 18.5382 9.30046 18.5382ZM15.8167 18.5382C15.4679 18.5382 15.1833 18.2217 15.1833 17.8339C15.1833 17.446 15.4679 17.1295 15.8167 17.1295C16.1655 17.1295 16.4501 17.446 16.4501 17.8339C16.4501 18.0207 16.3833 18.1998 16.2646 18.3319C16.1458 18.464 15.9847 18.5382 15.8167 18.5382Z" fill="#87888C"/>
</svg>
