<svg width="22" height="22" viewBox="0 0 22 22" fill="none" xmlns="http://www.w3.org/2000/svg">
<g style="mix-blend-mode:darken">
<rect x="0.958984" y="0.9021" width="20.9781" height="20.9781" />
</g>
<path d="M7.50489 17.2112L8.15813 17.5608C9.16967 18.1016 10.2993 18.3836 11.4463 18.3819H11.4493C12.8321 18.3819 14.1839 17.9718 15.3337 17.2035C16.4835 16.4352 17.3797 15.3433 17.9089 14.0657C18.4381 12.7881 18.5766 11.3823 18.3068 10.026C18.037 8.66969 17.3711 7.42387 16.3933 6.44604C15.4154 5.46822 14.1696 4.80231 12.8133 4.53253C11.457 4.26274 10.0512 4.40121 8.77363 4.9304C7.49604 5.4596 6.40406 6.35576 5.63579 7.50556C4.86752 8.65536 4.45745 10.0072 4.45745 11.39V11.393C4.45568 12.54 4.73774 13.6696 5.27849 14.6812L5.62809 15.3344L5.09071 17.7486L7.50489 17.2112ZM2.45978 20.3795L3.51655 15.6231C2.78535 14.2532 2.42146 12.7173 2.46034 11.165C2.49921 9.61263 2.93953 8.09685 3.73838 6.7653C4.53724 5.43374 5.66738 4.33182 7.01872 3.56689C8.37005 2.80197 9.89648 2.40012 11.4493 2.40051C13.8335 2.40051 16.12 3.34762 17.8058 5.03348C19.4917 6.71934 20.4388 9.00585 20.4388 11.39C20.4392 12.9428 20.0373 14.4693 19.2724 15.8206C18.5075 17.1719 17.4056 18.3021 16.074 19.1009C14.7424 19.8998 13.2267 20.3401 11.6743 20.379C10.122 20.4178 8.58611 20.054 7.21623 19.3228L2.45978 20.3795Z" fill="#87888C"/>
</svg>
