<svg width="22" height="22" viewBox="0 0 22 22" fill="none" xmlns="http://www.w3.org/2000/svg">
<g style="mix-blend-mode:darken">
<rect x="0.958984" y="0.481689" width="20.9781" height="20.9781" />
</g>
<path fill-rule="evenodd" clip-rule="evenodd" d="M2.45752 1.9801H3.58135V18.8375H20.4388V19.9614H2.45752V1.9801ZM19.1093 5.47858C19.1664 5.52534 19.2138 5.58291 19.2487 5.64799C19.2836 5.71307 19.3053 5.78439 19.3126 5.85787C19.3199 5.93134 19.3127 6.00554 19.2913 6.07622C19.2699 6.14689 19.2348 6.21266 19.188 6.26976L14.1307 12.4508C14.081 12.5115 14.0192 12.5611 13.9491 12.5964C13.8791 12.6317 13.8025 12.652 13.7241 12.6559C13.6458 12.6598 13.5675 12.6473 13.4943 12.6192C13.4211 12.591 13.3546 12.5478 13.2991 12.4924L10.3918 9.58506L6.28303 15.2345C6.19315 15.3488 6.06247 15.4238 5.91845 15.4438C5.77442 15.4637 5.62827 15.4271 5.51071 15.3415C5.39314 15.256 5.31332 15.1282 5.28801 14.985C5.2627 14.8418 5.29387 14.6944 5.37498 14.5737L9.8703 8.39267C9.91801 8.32694 9.97941 8.27234 10.0503 8.23263C10.1211 8.19291 10.1997 8.16902 10.2807 8.16261C10.3617 8.15621 10.443 8.16743 10.5193 8.1955C10.5955 8.22358 10.6647 8.26784 10.7222 8.32524L13.6542 11.2584L18.3181 5.55725C18.3649 5.5001 18.4225 5.45273 18.4875 5.41785C18.5526 5.38296 18.6239 5.36125 18.6974 5.35394C18.7709 5.34663 18.8451 5.35388 18.9158 5.37527C18.9864 5.39666 19.0522 5.43176 19.1093 5.47858Z" fill="#87888C" stroke="#87888C" stroke-width="0.74922"/>
</svg>
