<svg width="22" height="22" viewBox="0 0 22 22" fill="none" xmlns="http://www.w3.org/2000/svg">
<g style="mix-blend-mode:darken">
<rect x="0.958984" y="0.32251" width="20.9781" height="20.9781"/>
</g>
<path d="M8.87863 19.8022C7.39161 19.3403 6.04486 18.4857 4.9695 17.3216C5.3155 16.8947 5.53118 16.3701 5.58895 15.8149C5.64673 15.2597 5.54396 14.6992 5.29381 14.2051C5.04366 13.7111 4.65751 13.3059 4.18475 13.0414C3.712 12.7769 3.17415 12.6653 2.64003 12.7206C2.51835 12.1005 2.4572 11.4692 2.45752 10.8363C2.45752 9.8589 2.60137 8.91606 2.86929 8.03028H2.90705C3.36547 8.03043 3.81635 7.90903 4.21714 7.67753C4.61792 7.44604 4.95538 7.11209 5.19765 6.70721C5.43992 6.30234 5.57901 5.83991 5.60178 5.36358C5.62455 4.88725 5.53025 4.41275 5.32778 3.98487C6.38175 2.96384 7.65638 2.22164 9.04406 1.82092C9.26989 2.28224 9.61399 2.66957 10.0383 2.94005C10.4626 3.21054 10.9505 3.35363 11.4482 3.3535C11.9458 3.35363 12.4337 3.21054 12.858 2.94005C13.2823 2.66957 13.6264 2.28224 13.8522 1.82092C15.2399 2.22164 16.5146 2.96384 17.5685 3.98487C17.3646 4.41574 17.2704 4.89387 17.2949 5.37347C17.3194 5.85308 17.4618 6.31812 17.7085 6.72407C17.9552 7.13002 18.2979 7.4633 18.7039 7.692C19.1098 7.92071 19.5654 8.03718 20.027 8.03028C20.3008 8.93838 20.4396 9.88464 20.4388 10.8363C20.4388 11.4817 20.3759 12.1122 20.2563 12.7206C19.7222 12.6653 19.1843 12.7769 18.7116 13.0414C18.2388 13.3059 17.8526 13.7111 17.6025 14.2051C17.3523 14.6992 17.2496 15.2597 17.3074 15.8149C17.3651 16.3701 17.5808 16.8947 17.9268 17.3216C16.8514 18.4857 15.5047 19.3403 14.0177 19.8022C13.8431 19.236 13.5001 18.7421 13.0383 18.3916C12.5765 18.0412 12.0197 17.8524 11.4482 17.8524C10.8766 17.8524 10.3198 18.0412 9.85797 18.3916C9.39617 18.7421 9.05325 19.236 8.87863 19.8022Z" stroke="#87888C" stroke-width="1.79813" stroke-linejoin="round"/>
<path d="M11.4487 14.1094C11.862 14.1094 12.2711 14.0248 12.6529 13.8602C13.0347 13.6957 13.3816 13.4546 13.6738 13.1506C13.966 12.8466 14.1978 12.4857 14.3559 12.0885C14.5141 11.6913 14.5954 11.2656 14.5954 10.8357C14.5954 10.4058 14.5141 9.98008 14.3559 9.58289C14.1978 9.1857 13.966 8.8248 13.6738 8.52081C13.3816 8.21681 13.0347 7.97567 12.6529 7.81115C12.2711 7.64663 11.862 7.56195 11.4487 7.56195C10.6142 7.56195 9.81378 7.90686 9.22366 8.52081C8.63353 9.13475 8.302 9.96744 8.302 10.8357C8.302 11.7039 8.63353 12.5366 9.22366 13.1506C9.81378 13.7645 10.6142 14.1094 11.4487 14.1094V14.1094Z" stroke="#87888C" stroke-width="1.79813" stroke-linejoin="round"/>
</svg>
