<svg width="22" height="22" viewBox="0 0 22 22" fill="none" xmlns="http://www.w3.org/2000/svg">
<g style="mix-blend-mode:darken">
<rect x="0.958984" y="0.800293" width="20.9781" height="20.9781" />
</g>
<path d="M11.4482 11.2893C12.6404 11.2893 13.7838 10.8157 14.6268 9.97269C15.4699 9.12966 15.9435 7.98626 15.9435 6.79402C15.9435 5.60179 15.4699 4.45839 14.6268 3.61535C13.7838 2.77232 12.6404 2.29871 11.4482 2.29871C10.2559 2.29871 9.11252 2.77232 8.26949 3.61535C7.42645 4.45839 6.95284 5.60179 6.95284 6.79402C6.95284 7.98626 7.42645 9.12966 8.26949 9.97269C9.11252 10.8157 10.2559 11.2893 11.4482 11.2893ZM14.445 6.79402C14.445 7.58885 14.1293 8.35111 13.5673 8.91314C13.0052 9.47516 12.243 9.7909 11.4482 9.7909C10.6533 9.7909 9.89107 9.47516 9.32904 8.91314C8.76702 8.35111 8.45128 7.58885 8.45128 6.79402C8.45128 5.9992 8.76702 5.23693 9.32904 4.67491C9.89107 4.11289 10.6533 3.79715 11.4482 3.79715C12.243 3.79715 13.0052 4.11289 13.5673 4.67491C14.1293 5.23693 14.445 5.9992 14.445 6.79402ZM20.4388 18.7815C20.4388 20.28 18.9404 20.28 18.9404 20.28H3.95596C3.95596 20.28 2.45752 20.28 2.45752 18.7815C2.45752 17.2831 3.95596 12.7878 11.4482 12.7878C18.9404 12.7878 20.4388 17.2831 20.4388 18.7815ZM18.9404 18.7755C18.9389 18.4069 18.7096 17.2981 17.6936 16.2821C16.7167 15.3052 14.8781 14.2862 11.4482 14.2862C8.01673 14.2862 6.17964 15.3052 5.20266 16.2821C4.18672 17.2981 3.95896 18.4069 3.95596 18.7755H18.9404Z" fill="#87888C"/>
</svg>
