<svg width="22" height="22" viewBox="0 0 22 22" fill="none" xmlns="http://www.w3.org/2000/svg">
<g style="mix-blend-mode:darken">
<rect x="0.958984" y="0.163391" width="20.9781" height="20.9781" />
</g>
<mask id="path-2-inside-1_1_720" fill="white">
<path d="M10.7416 1.68999C12.5568 1.54529 14.3726 1.96132 15.9489 2.88303C17.5251 3.80474 18.7875 5.18868 19.5688 6.85174C20.3502 8.51479 20.6138 10.3786 20.3248 12.1964C20.0357 14.0143 19.2076 15.7005 17.95 17.0321C16.6925 18.3636 15.0647 19.2776 13.2822 19.6532C11.4997 20.0288 9.64636 19.8483 7.96752 19.1355C6.28868 18.4227 4.86344 17.2112 3.8804 15.6614C2.89736 14.1116 2.40285 12.2965 2.46232 10.4563C2.46887 10.2302 2.56396 10.0161 2.72667 9.8609C2.88938 9.70575 3.10637 9.62231 3.32991 9.62894C3.55346 9.63558 3.76524 9.73173 3.91867 9.89626C4.0721 10.0608 4.15462 10.2802 4.14806 10.5063C4.09111 12.2482 4.64513 13.9544 5.71216 15.3232C6.7792 16.6919 8.2905 17.6351 9.97885 17.9859C11.6672 18.3366 13.4238 18.0724 14.9381 17.2399C16.4524 16.4074 17.6268 15.0603 18.2536 13.4367C18.8805 11.8132 18.9194 10.0178 18.3635 8.36802C17.8076 6.71825 16.6927 5.32038 15.216 4.42159C13.7392 3.52281 11.9957 3.181 10.2938 3.45661C8.59189 3.73222 7.04117 4.60749 5.91584 5.92766L5.68658 6.21063H7.79601L7.91064 6.21858C8.11323 6.24573 8.29917 6.34638 8.43385 6.50181C8.56853 6.65724 8.64278 6.85685 8.64278 7.0635C8.64278 7.27015 8.56853 7.46977 8.43385 7.62519C8.29917 7.78062 8.11323 7.88127 7.91064 7.90842L7.79601 7.91524H3.86485L3.75022 7.90842C3.56783 7.88306 3.39866 7.79801 3.26858 7.66626C3.13849 7.53452 3.05465 7.36332 3.02985 7.17885L3.02198 7.06293V2.5173L3.02985 2.40252C3.05465 2.21804 3.13849 2.04685 3.26858 1.9151C3.39866 1.78336 3.56783 1.69831 3.75022 1.67295L3.86485 1.66613L3.97949 1.67295C4.16188 1.69831 4.33105 1.78336 4.46113 1.9151C4.59122 2.04685 4.67506 2.21804 4.69986 2.40252L4.70773 2.5173L4.7066 4.7367C6.2493 2.9654 8.41437 1.87238 10.7416 1.68999ZM11.1664 6.21063L11.281 6.21858C11.4634 6.24394 11.6326 6.329 11.7626 6.46074C11.8927 6.59249 11.9766 6.76368 12.0014 6.94816L12.0092 7.06293V10.7529L13.9759 10.754L14.0906 10.7619C14.2923 10.79 14.4772 10.891 14.611 11.0462C14.7448 11.2014 14.8186 11.4004 14.8186 11.6063C14.8186 11.8122 14.7448 12.0112 14.611 12.1664C14.4772 12.3216 14.2923 12.4226 14.0906 12.4506L13.9759 12.4586H11.1664L11.0517 12.4506C10.8695 12.4253 10.7005 12.3405 10.5704 12.2089C10.4403 12.0774 10.3564 11.9065 10.3314 11.7222L10.3235 11.6052V7.06293L10.3314 6.94816C10.3562 6.76368 10.44 6.59249 10.5701 6.46074C10.7002 6.329 10.8693 6.24394 11.0517 6.21858L11.1664 6.21176V6.21063Z"/>
</mask>
<path d="M10.7416 1.68999C12.5568 1.54529 14.3726 1.96132 15.9489 2.88303C17.5251 3.80474 18.7875 5.18868 19.5688 6.85174C20.3502 8.51479 20.6138 10.3786 20.3248 12.1964C20.0357 14.0143 19.2076 15.7005 17.95 17.0321C16.6925 18.3636 15.0647 19.2776 13.2822 19.6532C11.4997 20.0288 9.64636 19.8483 7.96752 19.1355C6.28868 18.4227 4.86344 17.2112 3.8804 15.6614C2.89736 14.1116 2.40285 12.2965 2.46232 10.4563C2.46887 10.2302 2.56396 10.0161 2.72667 9.8609C2.88938 9.70575 3.10637 9.62231 3.32991 9.62894C3.55346 9.63558 3.76524 9.73173 3.91867 9.89626C4.0721 10.0608 4.15462 10.2802 4.14806 10.5063C4.09111 12.2482 4.64513 13.9544 5.71216 15.3232C6.7792 16.6919 8.2905 17.6351 9.97885 17.9859C11.6672 18.3366 13.4238 18.0724 14.9381 17.2399C16.4524 16.4074 17.6268 15.0603 18.2536 13.4367C18.8805 11.8132 18.9194 10.0178 18.3635 8.36802C17.8076 6.71825 16.6927 5.32038 15.216 4.42159C13.7392 3.52281 11.9957 3.181 10.2938 3.45661C8.59189 3.73222 7.04117 4.60749 5.91584 5.92766L5.68658 6.21063H7.79601L7.91064 6.21858C8.11323 6.24573 8.29917 6.34638 8.43385 6.50181C8.56853 6.65724 8.64278 6.85685 8.64278 7.0635C8.64278 7.27015 8.56853 7.46977 8.43385 7.62519C8.29917 7.78062 8.11323 7.88127 7.91064 7.90842L7.79601 7.91524H3.86485L3.75022 7.90842C3.56783 7.88306 3.39866 7.79801 3.26858 7.66626C3.13849 7.53452 3.05465 7.36332 3.02985 7.17885L3.02198 7.06293V2.5173L3.02985 2.40252C3.05465 2.21804 3.13849 2.04685 3.26858 1.9151C3.39866 1.78336 3.56783 1.69831 3.75022 1.67295L3.86485 1.66613L3.97949 1.67295C4.16188 1.69831 4.33105 1.78336 4.46113 1.9151C4.59122 2.04685 4.67506 2.21804 4.69986 2.40252L4.70773 2.5173L4.7066 4.7367C6.2493 2.9654 8.41437 1.87238 10.7416 1.68999ZM11.1664 6.21063L11.281 6.21858C11.4634 6.24394 11.6326 6.329 11.7626 6.46074C11.8927 6.59249 11.9766 6.76368 12.0014 6.94816L12.0092 7.06293V10.7529L13.9759 10.754L14.0906 10.7619C14.2923 10.79 14.4772 10.891 14.611 11.0462C14.7448 11.2014 14.8186 11.4004 14.8186 11.6063C14.8186 11.8122 14.7448 12.0112 14.611 12.1664C14.4772 12.3216 14.2923 12.4226 14.0906 12.4506L13.9759 12.4586H11.1664L11.0517 12.4506C10.8695 12.4253 10.7005 12.3405 10.5704 12.2089C10.4403 12.0774 10.3564 11.9065 10.3314 11.7222L10.3235 11.6052V7.06293L10.3314 6.94816C10.3562 6.76368 10.44 6.59249 10.5701 6.46074C10.7002 6.329 10.8693 6.24394 11.0517 6.21858L11.1664 6.21176V6.21063Z" fill="#87888C"/>
<path d="M2.46232 10.4563L4.25952 10.5143L4.25969 10.5084L2.46232 10.4563ZM4.14806 10.5063L5.94524 10.565L5.94543 10.5584L4.14806 10.5063ZM5.91584 5.92766L4.54741 4.76119L4.53285 4.77827L4.51873 4.7957L5.91584 5.92766ZM5.68658 6.21063L4.28946 5.07867L1.91549 8.00875H5.68658V6.21063ZM7.79601 6.21063L7.9205 4.41681L7.85833 4.4125H7.79601V6.21063ZM7.91064 6.21858L8.14946 4.43638L8.09248 4.42875L8.03513 4.42477L7.91064 6.21858ZM7.91064 7.90842L8.0174 9.70338L8.08366 9.69944L8.14946 9.69062L7.91064 7.90842ZM7.79601 7.91524V9.71337H7.84944L7.90277 9.71019L7.79601 7.91524ZM3.86485 7.91524L3.7581 9.71019L3.81143 9.71337H3.86485V7.91524ZM3.75022 7.90842L3.50259 9.68941L3.57275 9.69917L3.64346 9.70338L3.75022 7.90842ZM3.02985 7.17885L1.23585 7.3006L1.23986 7.35969L1.24775 7.41838L3.02985 7.17885ZM3.02198 7.06293H1.22386V7.12388L1.22798 7.18469L3.02198 7.06293ZM3.02198 2.5173L1.22807 2.39434L1.22386 2.45575V2.5173H3.02198ZM3.02985 2.40252L1.24775 2.16298L1.23994 2.22108L1.23593 2.27957L3.02985 2.40252ZM3.75022 1.67295L3.64346 -0.122009L3.57275 -0.117803L3.50259 -0.108048L3.75022 1.67295ZM3.86485 1.66613L3.97162 -0.128828L3.86485 -0.135179L3.75809 -0.128828L3.86485 1.66613ZM3.97949 1.67295L4.22712 -0.108048L4.15696 -0.117803L4.08625 -0.122009L3.97949 1.67295ZM4.69986 2.40252L6.49378 2.27957L6.48977 2.22108L6.48196 2.16298L4.69986 2.40252ZM4.70773 2.5173L6.50585 2.51821L6.50588 2.4562L6.50165 2.39435L4.70773 2.5173ZM4.7066 4.7367L2.90848 4.73579L2.90604 9.54192L6.06256 5.91766L4.7066 4.7367ZM11.1664 6.21063L11.2909 4.41681L9.36824 4.28338V6.21063H11.1664ZM11.281 6.21858L11.5286 4.43759L11.4673 4.42906L11.4055 4.42477L11.281 6.21858ZM12.0014 6.94816L13.7953 6.8252L13.7913 6.76672L13.7835 6.70862L12.0014 6.94816ZM12.0092 7.06293H13.8074V7.00138L13.8032 6.93998L12.0092 7.06293ZM12.0092 10.7529H10.2111V12.5499L12.0082 12.551L12.0092 10.7529ZM13.9759 10.754L14.1004 8.96018L14.0388 8.9559L13.977 8.95586L13.9759 10.754ZM14.0906 10.7619L14.3384 8.98097L14.2769 8.97243L14.2151 8.96813L14.0906 10.7619ZM14.0906 12.4506L14.2151 14.2445L14.2769 14.2402L14.3384 14.2316L14.0906 12.4506ZM13.9759 12.4586V14.2567H14.0383L14.1004 14.2524L13.9759 12.4586ZM11.1664 12.4586L11.0419 14.2524L11.1041 14.2567H11.1664V12.4586ZM11.0517 12.4506L10.8044 14.2317L10.8656 14.2402L10.9273 14.2445L11.0517 12.4506ZM10.3314 11.7222L8.53729 11.8428L8.54138 11.9037L8.54959 11.9642L10.3314 11.7222ZM10.3235 11.6052H8.52537V11.6655L8.52942 11.7257L10.3235 11.6052ZM10.3235 7.06293L8.52958 6.93998L8.52537 7.00138V7.06293H10.3235ZM10.3314 6.94816L8.54927 6.70862L8.54146 6.76672L8.53745 6.8252L10.3314 6.94816ZM11.0517 6.21858L10.945 4.42363L10.8743 4.42783L10.8041 4.43759L11.0517 6.21858ZM11.1664 6.21176L11.2731 8.00672L12.9645 7.90611V6.21176H11.1664ZM10.7416 1.68999L10.8845 3.48243C12.3321 3.36703 13.7814 3.69859 15.0412 4.43525L15.9489 2.88303L16.8565 1.3308C14.9638 0.224043 12.7815 -0.276456 10.5987 -0.102449L10.7416 1.68999ZM15.9489 2.88303L15.0412 4.43525C16.3013 5.17207 17.3137 6.28041 17.9414 7.61639L19.5688 6.85174L21.1963 6.08708C20.2612 4.09695 18.749 2.43741 16.8565 1.3308L15.9489 2.88303ZM19.5688 6.85174L17.9414 7.61639C18.5692 8.95258 18.7815 10.4515 18.549 11.914L20.3248 12.1964L22.1006 12.4788C22.4461 10.3056 22.1312 8.07699 21.1963 6.08708L19.5688 6.85174ZM20.3248 12.1964L18.549 11.914C18.3164 13.3765 17.6506 14.7304 16.6428 15.7974L17.95 17.0321L19.2573 18.2667C20.7646 16.6707 21.755 14.6521 22.1006 12.4788L20.3248 12.1964ZM17.95 17.0321L16.6428 15.7974C15.6352 16.8643 14.3336 17.5941 12.9115 17.8938L13.2822 19.6532L13.6529 21.4127C15.7959 20.9612 17.7498 19.8629 19.2573 18.2667L17.95 17.0321ZM13.2822 19.6532L12.9115 17.8938C11.4895 18.1934 10.0108 18.0495 8.67025 17.4804L7.96752 19.1355L7.26478 20.7906C9.2819 21.647 11.5099 21.8643 13.6529 21.4127L13.2822 19.6532ZM7.96752 19.1355L8.67025 17.4804C7.32945 16.9111 6.18777 15.9421 5.39883 14.6983L3.8804 15.6614L2.36197 16.6245C3.53911 18.4804 5.2479 19.9343 7.26478 20.7906L7.96752 19.1355ZM3.8804 15.6614L5.39883 14.6983C4.60974 13.4542 4.21166 11.9951 4.25951 10.5143L2.46232 10.4563L0.665128 10.3982C0.594051 12.5978 1.18498 14.769 2.36197 16.6245L3.8804 15.6614ZM2.46232 10.4563L4.25969 10.5084C4.2526 10.7527 4.14989 10.9884 3.96756 11.1622L2.72667 9.8609L1.48578 8.55958C0.978044 9.04373 0.685146 9.70776 0.664946 10.4041L2.46232 10.4563ZM2.72667 9.8609L3.96756 11.1622C3.78455 11.3367 3.53626 11.434 3.2766 11.4263L3.32991 9.62894L3.38322 7.83161C2.67648 7.81065 1.9942 8.07476 1.48578 8.55958L2.72667 9.8609ZM3.32991 9.62894L3.2766 11.4263C3.017 11.4186 2.77549 11.3069 2.60364 11.1226L3.91867 9.89626L5.2337 8.6699C4.75499 8.15657 4.08991 7.85257 3.38322 7.83161L3.32991 9.62894ZM3.91867 9.89626L2.60364 11.1226C2.43243 10.939 2.3436 10.6983 2.35069 10.4541L4.14806 10.5063L5.94543 10.5584C5.96563 9.86208 5.71177 9.18254 5.2337 8.6699L3.91867 9.89626ZM4.14806 10.5063L2.35089 10.4475C2.28026 12.608 2.96714 14.7266 4.29403 16.4287L5.71216 15.3232L7.13029 14.2177C6.32312 13.1822 5.90196 11.8884 5.94523 10.565L4.14806 10.5063ZM5.71216 15.3232L4.29403 16.4287C5.62127 18.1312 7.50445 19.3083 9.61309 19.7464L9.97885 17.9859L10.3446 16.2253C9.07655 15.9619 7.93712 15.2526 7.13029 14.2177L5.71216 15.3232ZM9.97885 17.9859L9.61309 19.7464C11.722 20.1845 13.9154 19.8541 15.8044 18.8156L14.9381 17.2399L14.0718 15.6642C12.9322 16.2907 11.6124 16.4887 10.3446 16.2253L9.97885 17.9859ZM14.9381 17.2399L15.8044 18.8156C17.6928 17.7774 19.1528 16.1001 19.9311 14.0844L18.2536 13.4367L16.5762 12.7891C16.1007 14.0205 15.2119 15.0374 14.0718 15.6642L14.9381 17.2399ZM18.2536 13.4367L19.9311 14.0844C20.7092 12.069 20.7574 9.84137 20.0675 7.79386L18.3635 8.36802L16.6595 8.94218C17.0814 10.1942 17.0518 11.5573 16.5762 12.7891L18.2536 13.4367ZM18.3635 8.36802L20.0675 7.79386C19.3775 5.74602 17.992 4.00615 16.1508 2.88559L15.216 4.42159L14.2811 5.9576C15.3935 6.63461 16.2377 7.69047 16.6595 8.94218L18.3635 8.36802ZM15.216 4.42159L16.1508 2.88559C14.3092 1.76474 12.1324 1.33731 10.0064 1.6816L10.2938 3.45661L10.5813 5.23161C11.859 5.02469 13.1692 5.28088 14.2811 5.9576L15.216 4.42159ZM10.2938 3.45661L10.0064 1.6816C7.8805 2.02587 5.9476 3.11857 4.54741 4.76119L5.91584 5.92766L7.28428 7.09413C8.13474 6.09642 9.30329 5.43857 10.5813 5.23161L10.2938 3.45661ZM5.91584 5.92766L4.51873 4.7957L4.28946 5.07867L5.68658 6.21063L7.0837 7.34258L7.31296 7.05962L5.91584 5.92766ZM5.68658 6.21063V8.00875H7.79601V6.21063V4.4125H5.68658V6.21063ZM7.79601 6.21063L7.67152 8.00444L7.78615 8.01239L7.91064 6.21858L8.03513 4.42477L7.9205 4.41681L7.79601 6.21063ZM7.91064 6.21858L7.67182 8.00078C7.43687 7.96929 7.22545 7.85305 7.07493 7.67935L8.43385 6.50181L9.79277 5.32427C9.37289 4.83971 8.7896 4.52216 8.14946 4.43638L7.91064 6.21858ZM8.43385 6.50181L7.07493 7.67935C6.92484 7.50614 6.84466 7.28712 6.84466 7.0635H8.64278H10.4409C10.4409 6.42658 10.2122 5.80834 9.79277 5.32427L8.43385 6.50181ZM8.64278 7.0635H6.84466C6.84466 6.83988 6.92484 6.62087 7.07493 6.44766L8.43385 7.62519L9.79277 8.80273C10.2122 8.31867 10.4409 7.70042 10.4409 7.0635H8.64278ZM8.43385 7.62519L7.07493 6.44766C7.22545 6.27395 7.43686 6.15771 7.67182 6.12622L7.91064 7.90842L8.14946 9.69062C8.7896 9.60484 9.37289 9.28729 9.79277 8.80273L8.43385 7.62519ZM7.91064 7.90842L7.80388 6.11347L7.68925 6.12029L7.79601 7.91524L7.90277 9.71019L8.0174 9.70338L7.91064 7.90842ZM7.79601 7.91524V6.11711H3.86485V7.91524V9.71337H7.79601V7.91524ZM3.86485 7.91524L3.97161 6.12029L3.85698 6.11347L3.75022 7.90842L3.64346 9.70338L3.7581 9.71019L3.86485 7.91524ZM3.75022 7.90842L3.99786 6.12743C4.20926 6.15682 4.40209 6.25502 4.54809 6.40289L3.26858 7.66626L1.98907 8.92964C2.39524 9.341 2.9264 9.6093 3.50259 9.68941L3.75022 7.90842ZM3.26858 7.66626L4.54809 6.40289C4.69378 6.55044 4.78506 6.73924 4.81195 6.93931L3.02985 7.17885L1.24775 7.41838C1.32423 7.9874 1.58321 8.51859 1.98907 8.92964L3.26858 7.66626ZM3.02985 7.17885L4.82385 7.05709L4.81598 6.94118L3.02198 7.06293L1.22798 7.18469L1.23585 7.3006L3.02985 7.17885ZM3.02198 7.06293H4.82011V2.5173H3.02198H1.22386V7.06293H3.02198ZM3.02198 2.5173L4.8159 2.64025L4.82377 2.52547L3.02985 2.40252L1.23593 2.27957L1.22807 2.39434L3.02198 2.5173ZM3.02985 2.40252L4.81195 2.64206C4.78506 2.84212 4.69378 3.03093 4.54809 3.17848L3.26858 1.9151L1.98907 0.65173C1.58321 1.06277 1.32423 1.59397 1.24775 2.16298L3.02985 2.40252ZM3.26858 1.9151L4.54809 3.17848C4.40208 3.32635 4.20926 3.42455 3.99786 3.45394L3.75022 1.67295L3.50259 -0.108048C2.9264 -0.0279331 2.39524 0.24037 1.98907 0.65173L3.26858 1.9151ZM3.75022 1.67295L3.85699 3.4679L3.97162 3.46108L3.86485 1.66613L3.75809 -0.128828L3.64346 -0.122009L3.75022 1.67295ZM3.86485 1.66613L3.75809 3.46108L3.87272 3.4679L3.97949 1.67295L4.08625 -0.122009L3.97162 -0.128828L3.86485 1.66613ZM3.97949 1.67295L3.73185 3.45394C3.52045 3.42455 3.32763 3.32635 3.18162 3.17848L4.46113 1.9151L5.74064 0.65173C5.33447 0.24037 4.80331 -0.0279331 4.22712 -0.108048L3.97949 1.67295ZM4.46113 1.9151L3.18162 3.17848C3.03593 3.03093 2.94465 2.84212 2.91776 2.64206L4.69986 2.40252L6.48196 2.16298C6.40548 1.59397 6.1465 1.06277 5.74064 0.65173L4.46113 1.9151ZM4.69986 2.40252L2.90594 2.52547L2.91381 2.64025L4.70773 2.5173L6.50165 2.39435L6.49378 2.27957L4.69986 2.40252ZM4.70773 2.5173L2.9096 2.51639L2.90848 4.73579L4.7066 4.7367L6.50473 4.73761L6.50585 2.51821L4.70773 2.5173ZM4.7066 4.7367L6.06256 5.91766C7.29803 4.4991 9.02779 3.62794 10.8821 3.48262L10.7416 1.68999L10.6011 -0.102639C7.80096 0.116809 5.20056 1.4317 3.35065 3.55575L4.7066 4.7367ZM11.1664 6.21063L11.0419 8.00444L11.1565 8.01239L11.281 6.21858L11.4055 4.42477L11.2909 4.41681L11.1664 6.21063ZM11.281 6.21858L11.0334 7.99958C10.822 7.97018 10.6291 7.87199 10.4831 7.72412L11.7626 6.46074L13.0422 5.19737C12.636 4.786 12.1048 4.5177 11.5286 4.43759L11.281 6.21858ZM11.7626 6.46074L10.4831 7.72412C10.3374 7.57656 10.2462 7.38776 10.2193 7.18769L12.0014 6.94816L13.7835 6.70862C13.707 6.13961 13.448 5.60841 13.0422 5.19737L11.7626 6.46074ZM12.0014 6.94816L10.2075 7.07111L10.2153 7.18589L12.0092 7.06293L13.8032 6.93998L13.7953 6.8252L12.0014 6.94816ZM12.0092 7.06293H10.2111V10.7529H12.0092H13.8074V7.06293H12.0092ZM12.0092 10.7529L12.0082 12.551L13.9749 12.5521L13.9759 10.754L13.977 8.95586L12.0103 8.95473L12.0092 10.7529ZM13.9759 10.754L13.8515 12.5478L13.9661 12.5558L14.0906 10.7619L14.2151 8.96813L14.1004 8.96018L13.9759 10.754ZM14.0906 10.7619L13.8428 12.5429C13.6088 12.5104 13.3987 12.3938 13.2492 12.2204L14.611 11.0462L15.9729 9.87205C15.5557 9.38819 14.9758 9.06966 14.3384 8.98097L14.0906 10.7619ZM14.611 11.0462L13.2492 12.2204C13.1001 12.0474 13.0204 11.8291 13.0204 11.6063H14.8186H16.6167C16.6167 10.9716 16.3896 10.3554 15.9729 9.87205L14.611 11.0462ZM14.8186 11.6063H13.0204C13.0204 11.3835 13.1001 11.1652 13.2492 10.9922L14.611 12.1664L15.9729 13.3405C16.3896 12.8572 16.6167 12.241 16.6167 11.6063H14.8186ZM14.611 12.1664L13.2492 10.9922C13.3987 10.8188 13.6088 10.7022 13.8428 10.6697L14.0906 12.4506L14.3384 14.2316C14.9758 14.1429 15.5557 13.8244 15.9729 13.3405L14.611 12.1664ZM14.0906 12.4506L13.9661 10.6568L13.8515 10.6648L13.9759 12.4586L14.1004 14.2524L14.2151 14.2445L14.0906 12.4506ZM13.9759 12.4586V10.6605H11.1664V12.4586V14.2567H13.9759V12.4586ZM11.1664 12.4586L11.2909 10.6648L11.1762 10.6568L11.0517 12.4506L10.9273 14.2445L11.0419 14.2524L11.1664 12.4586ZM11.0517 12.4506L11.299 10.6696C11.5102 10.6989 11.7029 10.7969 11.8489 10.9446L10.5704 12.2089L9.29188 13.4733C9.698 13.884 10.2288 14.1518 10.8044 14.2317L11.0517 12.4506ZM10.5704 12.2089L11.8489 10.9446C11.9946 11.0919 12.086 11.2804 12.1131 11.4803L10.3314 11.7222L8.54959 11.9642C8.62678 12.5326 8.88607 13.063 9.29188 13.4733L10.5704 12.2089ZM10.3314 11.7222L12.1254 11.6016L12.1176 11.4846L10.3235 11.6052L8.52942 11.7257L8.53729 11.8428L10.3314 11.7222ZM10.3235 11.6052H12.1216V7.06293H10.3235H8.52537V11.6052H10.3235ZM10.3235 7.06293L12.1174 7.18589L12.1253 7.07111L10.3314 6.94816L8.53745 6.8252L8.52958 6.93998L10.3235 7.06293ZM10.3314 6.94816L12.1135 7.18769C12.0866 7.38776 11.9953 7.57656 11.8496 7.72412L10.5701 6.46074L9.29058 5.19737C8.88472 5.60841 8.62575 6.13961 8.54927 6.70862L10.3314 6.94816ZM10.5701 6.46074L11.8496 7.72412C11.7036 7.87199 11.5108 7.97018 11.2994 7.99958L11.0517 6.21858L10.8041 4.43759C10.2279 4.5177 9.69676 4.786 9.29058 5.19737L10.5701 6.46074ZM11.0517 6.21858L11.1585 8.01354L11.2731 8.00672L11.1664 6.21176L11.0596 4.41681L10.945 4.42363L11.0517 6.21858ZM11.1664 6.21176H12.9645V6.21063H11.1664H9.36824V6.21176H11.1664Z" fill="#87888C" mask="url(#path-2-inside-1_1_720)"/>
</svg>
