<svg width="22" height="22" viewBox="0 0 22 22" fill="none" xmlns="http://www.w3.org/2000/svg">
<g style="mix-blend-mode:darken">
<rect x="0.958984" y="0.742981" width="20.9781" height="20.9781" />
</g>
<path d="M10.6158 2.81685C10.9035 2.04958 11.9922 2.04958 12.2808 2.81685L14.1417 8.02955C14.2067 8.19936 14.321 8.34526 14.4696 8.448C14.6182 8.55074 14.7942 8.60548 14.9742 8.60501H19.5476C20.3927 8.60501 20.7613 9.66864 20.0969 10.1895L16.8424 13.1504C16.6966 13.2638 16.5901 13.4209 16.5381 13.5992C16.4861 13.7776 16.4913 13.968 16.5529 14.1432L17.7414 19.2368C18.0309 20.055 17.0941 20.7577 16.3857 20.254L11.9652 17.4177C11.8138 17.3101 11.6333 17.2524 11.4483 17.2524C11.2632 17.2524 11.0827 17.3101 10.9313 17.4177L6.51083 20.254C5.80329 20.7577 4.86561 20.0541 5.1551 19.2368L6.34361 14.1432C6.40526 13.968 6.41046 13.7776 6.35845 13.5992C6.30644 13.4209 6.1999 13.2638 6.05412 13.1504L2.79966 10.1895C2.13438 9.66864 2.50478 8.60501 3.34806 8.60501H7.92139C8.10146 8.60561 8.27747 8.55092 8.42612 8.44816C8.57478 8.34541 8.68907 8.19943 8.75389 8.02955L10.6149 2.81685H10.6158Z" stroke="#87888C" stroke-width="1.79805" stroke-linecap="round" stroke-linejoin="round"/>
</svg>
