<svg width="40" height="40" viewBox="0 0 40 40" fill="none" xmlns="http://www.w3.org/2000/svg">
<g style="mix-blend-mode:darken">
<rect x="0.853027" y="0.36731" width="38.9594" height="38.9594" />
</g>
<path d="M20.1024 19.847C24.6486 19.847 28.334 16.2131 28.334 11.7304C28.334 7.24779 24.6486 3.61389 20.1024 3.61389C15.5563 3.61389 11.8708 7.24779 11.8708 11.7304C11.8708 16.2131 15.5563 19.847 20.1024 19.847Z" stroke="#20AEF3" stroke-width="2.24766"/>
<path d="M26.6879 26.3401H36.5658M28.3342 36.08H9.01626C8.54933 36.0801 8.08772 35.9823 7.66207 35.793C7.23642 35.6038 6.85645 35.3274 6.5474 34.9823C6.23834 34.6372 6.00726 34.2312 5.86949 33.7913C5.73172 33.3514 5.69041 32.8876 5.74831 32.4308L6.39038 27.3596C6.53969 26.1814 7.12038 25.0976 8.02325 24.312C8.92612 23.5264 10.089 23.0931 11.2931 23.0935H11.871L28.3342 36.08ZM31.6268 21.4702V31.2101V21.4702Z" stroke="#20AEF3" stroke-width="2.24766" stroke-linecap="round" stroke-linejoin="round"/>
</svg>
