<svg width="40" height="40" viewBox="0 0 40 40" fill="none" xmlns="http://www.w3.org/2000/svg">
<g style="mix-blend-mode:darken">
<rect x="0.239868" y="0.36731" width="38.9594" height="38.9594" />
</g>
<path d="M27.2069 5.90125H31.3513C31.7955 5.90125 32.2214 6.0794 32.5354 6.39652C32.8494 6.71363 33.0259 7.14373 33.0259 7.5922V35.493C33.0259 35.9415 32.8494 36.3716 32.5354 36.6887C32.2214 37.0058 31.7955 37.184 31.3513 37.184H7.90827C7.46416 37.184 7.03825 37.0058 6.72422 36.6887C6.41019 36.3716 6.23376 35.9415 6.23376 35.493V7.5922C6.23376 7.14373 6.41019 6.71363 6.72422 6.39652C7.03825 6.0794 7.46416 5.90125 7.90827 5.90125H13.769V8.43768H25.4906V5.90125H27.2069Z" stroke="#A9DFD8" stroke-width="2.24766" stroke-linejoin="round"/>
<path d="M22.1417 16.0463L15.4437 22.811H23.8195L17.1182 29.5748M13.7692 3.36414H25.4907V8.43701H13.7692V3.36414Z" stroke="#A9DFD8" stroke-width="2.24766" stroke-linecap="round" stroke-linejoin="round"/>
</svg>
