<svg width="39" height="40" viewBox="0 0 39 40" fill="none" xmlns="http://www.w3.org/2000/svg">
<g style="mix-blend-mode:darken">
<rect x="0.0466309" y="0.36731" width="38.9594" height="38.9594" />
</g>
<path d="M28.2149 11.2232H33.6173C33.9441 11.2235 34.2591 11.3451 34.5013 11.5644C34.7435 11.7837 34.8957 12.0851 34.9283 12.4102L35.7329 20.4557H33.0792L32.4197 13.861H28.2149V17.8179C28.2149 18.1677 28.076 18.5031 27.8286 18.7505C27.5813 18.9978 27.2458 19.1368 26.896 19.1368C26.5462 19.1368 26.2107 18.9978 25.9634 18.7505C25.716 18.5031 25.5771 18.1677 25.5771 17.8179V13.861H15.0256V17.8179C15.0256 18.1677 14.8866 18.5031 14.6392 18.7505C14.3919 18.9978 14.0564 19.1368 13.7066 19.1368C13.3568 19.1368 13.0213 18.9978 12.774 18.7505C12.5266 18.5031 12.3877 18.1677 12.3877 17.8179V13.861H8.18026L6.06996 34.9641H20.3013V37.6019H4.61122C4.427 37.6018 4.24486 37.563 4.07654 37.4881C3.90821 37.4133 3.75744 37.304 3.63393 37.1673C3.51042 37.0306 3.41691 36.8696 3.35943 36.6945C3.30195 36.5195 3.28177 36.3344 3.30019 36.1511L5.67428 12.4102C5.70695 12.0851 5.85914 11.7837 6.10135 11.5644C6.34357 11.3451 6.65856 11.2235 6.98531 11.2232H12.3877V10.3026C12.3877 5.72847 15.9119 1.9906 20.3013 1.9906C24.6907 1.9906 28.2149 5.72847 28.2149 10.3026V11.2258V11.2232ZM25.5771 11.2232V10.3026C25.5771 7.15293 23.1977 4.62848 20.3013 4.62848C17.4049 4.62848 15.0256 7.15293 15.0256 10.3026V11.2258H25.5771V11.2232ZM33.8785 30.849C33.9988 30.7181 34.1443 30.6128 34.3064 30.5396C34.4684 30.4664 34.6435 30.4267 34.8213 30.4229C34.9991 30.4191 35.1758 30.4512 35.3408 30.5174C35.5058 30.5837 35.6557 30.6826 35.7815 30.8082C35.9073 30.9338 36.0064 31.0836 36.0729 31.2485C36.1394 31.4135 36.1718 31.5901 36.1682 31.7679C36.1647 31.9457 36.1252 32.1209 36.0522 32.283C35.9792 32.4451 35.8742 32.5908 35.7434 32.7113L30.4677 37.9871C30.2204 38.2343 29.8849 38.3732 29.5352 38.3732C29.1855 38.3732 28.85 38.2343 28.6027 37.9871L23.327 32.7113C23.201 32.5897 23.1005 32.4441 23.0314 32.2832C22.9623 32.1223 22.9259 31.9492 22.9244 31.7741C22.9228 31.599 22.9562 31.4253 23.0225 31.2632C23.0888 31.1011 23.1868 30.9538 23.3106 30.83C23.4344 30.7062 23.5817 30.6082 23.7438 30.5419C23.9059 30.4756 24.0796 30.4422 24.2547 30.4437C24.4298 30.4453 24.6029 30.4816 24.7638 30.5508C24.9247 30.6199 25.0703 30.7204 25.1919 30.8463L28.2149 33.872V24.4126C28.2149 24.0628 28.3539 23.7273 28.6012 23.4799C28.8486 23.2326 29.1841 23.0936 29.5339 23.0936C29.8837 23.0936 30.2192 23.2326 30.4665 23.4799C30.7139 23.7273 30.8528 24.0628 30.8528 24.4126V33.872L33.8785 30.8463V30.849Z" fill="#F2C8ED"/>
</svg>
